<?xml version="1.0" encoding="UTF-8"?>
<svg version="1.1" xmlns="http://www.w3.org/2000/svg" width="512" height="512">
<path d="M0 0 C-1.62836554 6.18156599 -4.94225509 11.31109137 -8.1875 16.75 C-9.45126506 18.89018571 -10.71425791 21.03082756 -11.9765625 23.171875 C-12.63430664 24.28498047 -13.29205078 25.39808594 -13.96972656 26.54492188 C-16.03068933 30.04326259 -18.06211031 33.55819871 -20.0859375 37.078125 C-20.42001114 37.65906921 -20.75408478 38.24001343 -21.09828186 38.83856201 C-22.71265138 41.64758413 -24.32494097 44.4577928 -25.9362793 47.26855469 C-29.18531237 52.91850642 -32.50292992 58.49988222 -36 64 C-36.9075 63.21625 -37.815 62.4325 -38.75 61.625 C-40.16554481 60.41535262 -41.58239645 59.20723405 -43 58 C-43.91910156 57.21496094 -44.83820313 56.42992187 -45.78515625 55.62109375 C-64.28069955 39.98937651 -85.48453627 27.38197216 -109 21 C-109.84159668 20.77006348 -110.68319336 20.54012695 -111.55029297 20.30322266 C-134.97668638 14.17810616 -162.38322053 12.82618207 -186 19 C-187.19206055 19.30599121 -187.19206055 19.30599121 -188.40820312 19.61816406 C-216.33935119 26.98144062 -240.01186166 40.18158274 -261 60 C-261.87140625 60.79535156 -262.7428125 61.59070313 -263.640625 62.41015625 C-292.61949911 89.85728987 -307.43567871 130.76440496 -309 170 C-309.14754739 182.86613211 -307.77450449 195.44896842 -305 208 C-304.60167969 209.84078125 -304.60167969 209.84078125 -304.1953125 211.71875 C-294.89390221 250.24140502 -269.42118301 285.50289433 -235.77148438 306.3828125 C-220.06157939 315.77387441 -203.6979848 322.40849166 -186 327 C-185.3002002 327.18224121 -184.60040039 327.36448242 -183.87939453 327.55224609 C-163.17127906 332.63197664 -137.63092423 332.10746077 -117 327 C-116.28457031 326.83371094 -115.56914062 326.66742188 -114.83203125 326.49609375 C-84.45123022 319.3383134 -59.15507929 303.6410754 -37 282 C-36.23300781 281.25878906 -35.46601563 280.51757812 -34.67578125 279.75390625 C-29.44315762 274.32783997 -25.22384987 268.21871204 -21 262 C-20.44256104 261.18861572 -19.88512207 260.37723145 -19.31079102 259.54125977 C-13.62640434 250.97228353 -9.70751446 242.41502892 -5 233 C-22.82 233 -40.64 233 -59 233 C-57.76540872 229.9135218 -56.68785459 227.26074518 -55.109375 224.41796875 C-54.73731934 223.74652832 -54.36526367 223.07508789 -53.98193359 222.38330078 C-53.57539551 221.65868652 -53.16885742 220.93407227 -52.75 220.1875 C-52.31381348 219.40616699 -51.87762695 218.62483398 -51.42822266 217.81982422 C-47.24084956 210.35765465 -42.92300108 202.97276297 -38.59667969 195.59057617 C-34.01042201 187.75745932 -29.4927339 179.88692251 -25 172 C-19.46048161 162.27856294 -13.86624806 152.59104683 -8.21655273 142.93310547 C-3.97382703 135.67788233 0.23991796 128.40643103 4.4375 121.125 C5.05584717 120.05258057 5.67419434 118.98016113 6.3112793 117.87524414 C9.53218506 112.28707093 12.74956462 106.696881 15.96484375 101.10546875 C19.63218817 94.73056075 23.31202265 88.36299025 27 82 C27.4935498 81.1455127 27.98709961 80.29102539 28.49560547 79.41064453 C29.75986058 77.22725756 31.03376025 75.04992542 32.3125 72.875 C32.66747559 72.25923096 33.02245117 71.64346191 33.38818359 71.0090332 C34.2026076 69.63772588 35.0929437 68.31187618 36 67 C36.66 67 37.32 67 38 67 C38.40613525 67.7120459 38.81227051 68.4240918 39.23071289 69.15771484 C48.49191534 85.39045455 57.7907986 101.60059805 67.14111328 117.78222656 C70.26324605 123.18670645 73.38141204 128.59347412 76.5 134 C77.74998122 136.1666775 78.99998121 138.33334417 80.25 140.5 C102.75 179.5 102.75 179.5 104.62792969 182.75512695 C105.86810761 184.90473634 107.10834127 187.05431358 108.34863281 189.20385742 C111.2735023 194.27309212 114.19780833 199.34264936 117.12011719 204.4133606 C118.49806938 206.80426597 119.87634172 209.19498672 121.25463867 211.58569336 C122.22540982 213.26983963 123.19571874 214.95425231 124.16601562 216.63867188 C124.75576172 217.66154297 125.34550781 218.68441406 125.953125 219.73828125 C126.47036133 220.63587158 126.98759766 221.53346191 127.52050781 222.45825195 C128.53930684 224.20853523 129.59875498 225.93557627 130.69042969 227.64135742 C132 230 132 230 132 233 C111.54 233 91.08 233 70 233 C69.01 236.96 68.02 240.92 67 245 C65.67798099 249.05389389 64.10124617 252.9860987 62.5 256.9375 C61.8495874 258.54951294 61.8495874 258.54951294 61.18603516 260.1940918 C54.98330816 275.24407634 47.59919359 289.81640808 38 303 C37.56606934 303.60618164 37.13213867 304.21236328 36.68505859 304.83691406 C29.73343457 314.52387694 22.30317929 323.45140655 14 332 C13.45085937 332.57492187 12.90171875 333.14984375 12.3359375 333.7421875 C4.12084119 342.33240236 -4.4544873 349.92695804 -14 357 C-15.11980911 357.85023745 -16.2396009 358.7004977 -17.359375 359.55078125 C-63.83877662 394.30771036 -125.12519018 408.15384762 -182.3125 400.875 C-240.09766817 392.34423248 -295.05627571 362.54678952 -331 316 C-331.72574219 315.07960938 -332.45148438 314.15921875 -333.19921875 313.2109375 C-355.36859859 284.50294476 -369.61643378 251.41035299 -377 216 C-377.17789062 215.17193848 -377.35578125 214.34387695 -377.5390625 213.49072266 C-388.91585788 157.81440161 -375.07249735 95.74960354 -344.37109375 48.546875 C-330.58578315 27.76611658 -313.72302747 8.32890867 -294 -7 C-293.19248291 -7.63010986 -293.19248291 -7.63010986 -292.36865234 -8.27294922 C-221.12436679 -63.43971297 -120.6353204 -72.45286809 0 0 Z " fill="#000000" transform="translate(380,83)"/>
</svg>
